<mxfile host="app.diagrams.net" modified="2020-11-01T17:04:53.144Z" agent="5.0 (Macintosh; Intel Mac OS X 10_15_7) AppleWebKit/537.36 (KHTML, like Gecko) Chrome/86.0.4240.75 Safari/537.36" etag="Tx_RYxiwiFBmxmD8Epju" version="13.8.8" type="github" pages="3">
  <diagram id="B69_xCuPPmJOlllpwnct" name="Interaction Diagram">
    <mxGraphModel dx="1298" dy="877" grid="1" gridSize="10" guides="1" tooltips="1" connect="1" arrows="1" fold="1" page="1" pageScale="1" pageWidth="850" pageHeight="1100" math="0" shadow="0">
      <root>
        <mxCell id="0" />
        <mxCell id="1" parent="0" />
        <mxCell id="AFESQtXUc2UWVLBhGiya-1" value="Customer" style="shape=umlActor;verticalLabelPosition=bottom;verticalAlign=top;html=1;outlineConnect=0;" parent="1" vertex="1">
          <mxGeometry x="110" y="20" width="30" height="60" as="geometry" />
        </mxCell>
        <mxCell id="AFESQtXUc2UWVLBhGiya-2" value="Food Vendor" style="shape=umlActor;verticalLabelPosition=bottom;verticalAlign=top;html=1;outlineConnect=0;" parent="1" vertex="1">
          <mxGeometry x="110" y="170" width="30" height="60" as="geometry" />
        </mxCell>
        <mxCell id="AFESQtXUc2UWVLBhGiya-3" value="POS Agent" style="shape=umlActor;verticalLabelPosition=bottom;verticalAlign=top;html=1;outlineConnect=0;" parent="1" vertex="1">
          <mxGeometry x="110" y="320" width="30" height="60" as="geometry" />
        </mxCell>
        <mxCell id="AFESQtXUc2UWVLBhGiya-4" value="Service Agent" style="shape=umlActor;verticalLabelPosition=bottom;verticalAlign=top;html=1;outlineConnect=0;" parent="1" vertex="1">
          <mxGeometry x="110" y="460" width="30" height="60" as="geometry" />
        </mxCell>
        <mxCell id="AFESQtXUc2UWVLBhGiya-5" value="System" style="shape=umlActor;verticalLabelPosition=bottom;verticalAlign=top;html=1;outlineConnect=0;" parent="1" vertex="1">
          <mxGeometry x="110" y="620" width="30" height="60" as="geometry" />
        </mxCell>
        <mxCell id="AFESQtXUc2UWVLBhGiya-7" value="Marketing Manager" style="shape=umlActor;verticalLabelPosition=bottom;verticalAlign=top;html=1;outlineConnect=0;" parent="1" vertex="1">
          <mxGeometry x="110" y="790" width="30" height="60" as="geometry" />
        </mxCell>
        <mxCell id="AFESQtXUc2UWVLBhGiya-10" value="Menu Service" style="rounded=0;whiteSpace=wrap;html=1;" parent="1" vertex="1">
          <mxGeometry x="450" y="50" width="100" height="40" as="geometry" />
        </mxCell>
        <mxCell id="AFESQtXUc2UWVLBhGiya-11" value="browse menu" style="endArrow=classic;html=1;entryX=0;entryY=0.5;entryDx=0;entryDy=0;" parent="1" target="AFESQtXUc2UWVLBhGiya-10" edge="1">
          <mxGeometry width="50" height="50" relative="1" as="geometry">
            <mxPoint x="160" y="60" as="sourcePoint" />
            <mxPoint x="260" y="110" as="targetPoint" />
          </mxGeometry>
        </mxCell>
        <mxCell id="AFESQtXUc2UWVLBhGiya-12" value="Locator Service" style="rounded=0;whiteSpace=wrap;html=1;" parent="1" vertex="1">
          <mxGeometry x="450" y="100" width="100" height="40" as="geometry" />
        </mxCell>
        <mxCell id="AFESQtXUc2UWVLBhGiya-13" value="find location" style="endArrow=classic;html=1;entryX=0;entryY=0.5;entryDx=0;entryDy=0;" parent="1" target="AFESQtXUc2UWVLBhGiya-12" edge="1">
          <mxGeometry width="50" height="50" relative="1" as="geometry">
            <mxPoint x="160" y="70" as="sourcePoint" />
            <mxPoint x="370" y="120" as="targetPoint" />
          </mxGeometry>
        </mxCell>
        <mxCell id="AFESQtXUc2UWVLBhGiya-14" value="Feedback Service" style="rounded=0;whiteSpace=wrap;html=1;" parent="1" vertex="1">
          <mxGeometry x="450" y="160" width="100" height="40" as="geometry" />
        </mxCell>
        <mxCell id="AFESQtXUc2UWVLBhGiya-15" value="provide feedback" style="endArrow=classic;html=1;entryX=0;entryY=0.25;entryDx=0;entryDy=0;" parent="1" target="AFESQtXUc2UWVLBhGiya-14" edge="1">
          <mxGeometry width="50" height="50" relative="1" as="geometry">
            <mxPoint x="160" y="80" as="sourcePoint" />
            <mxPoint x="370" y="180" as="targetPoint" />
          </mxGeometry>
        </mxCell>
        <mxCell id="AFESQtXUc2UWVLBhGiya-16" value="Rating Service" style="rounded=0;whiteSpace=wrap;html=1;" parent="1" vertex="1">
          <mxGeometry x="450" y="213" width="100" height="40" as="geometry" />
        </mxCell>
        <mxCell id="AFESQtXUc2UWVLBhGiya-17" value="rate items" style="endArrow=classic;html=1;entryX=0;entryY=0.5;entryDx=0;entryDy=0;" parent="1" target="AFESQtXUc2UWVLBhGiya-16" edge="1">
          <mxGeometry width="50" height="50" relative="1" as="geometry">
            <mxPoint x="150" y="100" as="sourcePoint" />
            <mxPoint x="370" y="210" as="targetPoint" />
          </mxGeometry>
        </mxCell>
        <mxCell id="Uqb2OwFKpr_LkZeMIo-q-1" value="Customer Profile" style="rounded=0;whiteSpace=wrap;html=1;" parent="1" vertex="1">
          <mxGeometry x="450" y="280" width="100" height="40" as="geometry" />
        </mxCell>
        <mxCell id="Uqb2OwFKpr_LkZeMIo-q-2" value="provide dietary/health info" style="endArrow=classic;html=1;entryX=0;entryY=0.5;entryDx=0;entryDy=0;" parent="1" target="Uqb2OwFKpr_LkZeMIo-q-1" edge="1">
          <mxGeometry width="50" height="50" relative="1" as="geometry">
            <mxPoint x="150" y="110" as="sourcePoint" />
            <mxPoint x="320" y="300" as="targetPoint" />
          </mxGeometry>
        </mxCell>
        <mxCell id="Uqb2OwFKpr_LkZeMIo-q-3" value="" style="endArrow=classic;html=1;entryX=0;entryY=0.5;entryDx=0;entryDy=0;" parent="1" target="AFESQtXUc2UWVLBhGiya-10" edge="1">
          <mxGeometry width="50" height="50" relative="1" as="geometry">
            <mxPoint x="160" y="220" as="sourcePoint" />
            <mxPoint x="240" y="320" as="targetPoint" />
          </mxGeometry>
        </mxCell>
        <mxCell id="Uqb2OwFKpr_LkZeMIo-q-4" value="publish menu" style="edgeLabel;html=1;align=center;verticalAlign=middle;resizable=0;points=[];" parent="Uqb2OwFKpr_LkZeMIo-q-3" vertex="1" connectable="0">
          <mxGeometry x="-0.8358" y="-3" relative="1" as="geometry">
            <mxPoint as="offset" />
          </mxGeometry>
        </mxCell>
        <mxCell id="Uqb2OwFKpr_LkZeMIo-q-5" value="Notification Service" style="rounded=0;whiteSpace=wrap;html=1;" parent="1" vertex="1">
          <mxGeometry x="450" y="340" width="200" height="40" as="geometry" />
        </mxCell>
        <mxCell id="Uqb2OwFKpr_LkZeMIo-q-6" value="notify prepare items ready&lt;br&gt;for delivery" style="endArrow=classic;html=1;entryX=0;entryY=0.5;entryDx=0;entryDy=0;" parent="1" target="Uqb2OwFKpr_LkZeMIo-q-5" edge="1">
          <mxGeometry width="50" height="50" relative="1" as="geometry">
            <mxPoint x="160" y="220" as="sourcePoint" />
            <mxPoint x="310" y="290" as="targetPoint" />
          </mxGeometry>
        </mxCell>
        <mxCell id="Uqb2OwFKpr_LkZeMIo-q-7" value="POS Service" style="rounded=0;whiteSpace=wrap;html=1;" parent="1" vertex="1">
          <mxGeometry x="450" y="400" width="130" height="40" as="geometry" />
        </mxCell>
        <mxCell id="Uqb2OwFKpr_LkZeMIo-q-8" value="" style="endArrow=classic;html=1;entryX=0;entryY=0.5;entryDx=0;entryDy=0;" parent="1" source="AFESQtXUc2UWVLBhGiya-3" target="Uqb2OwFKpr_LkZeMIo-q-7" edge="1">
          <mxGeometry width="50" height="50" relative="1" as="geometry">
            <mxPoint x="250" y="440" as="sourcePoint" />
            <mxPoint x="300" y="390" as="targetPoint" />
          </mxGeometry>
        </mxCell>
        <mxCell id="Uqb2OwFKpr_LkZeMIo-q-9" value="report item inventory" style="edgeLabel;html=1;align=center;verticalAlign=middle;resizable=0;points=[];" parent="Uqb2OwFKpr_LkZeMIo-q-8" vertex="1" connectable="0">
          <mxGeometry x="-0.2259" relative="1" as="geometry">
            <mxPoint as="offset" />
          </mxGeometry>
        </mxCell>
        <mxCell id="Uqb2OwFKpr_LkZeMIo-q-10" value="" style="endArrow=classic;html=1;entryX=0;entryY=0.75;entryDx=0;entryDy=0;" parent="1" target="Uqb2OwFKpr_LkZeMIo-q-7" edge="1">
          <mxGeometry width="50" height="50" relative="1" as="geometry">
            <mxPoint x="160" y="400" as="sourcePoint" />
            <mxPoint x="340" y="430" as="targetPoint" />
          </mxGeometry>
        </mxCell>
        <mxCell id="Uqb2OwFKpr_LkZeMIo-q-11" value="report purchases" style="edgeLabel;html=1;align=center;verticalAlign=middle;resizable=0;points=[];" parent="Uqb2OwFKpr_LkZeMIo-q-10" vertex="1" connectable="0">
          <mxGeometry x="-0.2341" y="-1" relative="1" as="geometry">
            <mxPoint y="-1" as="offset" />
          </mxGeometry>
        </mxCell>
        <mxCell id="Uqb2OwFKpr_LkZeMIo-q-17" style="edgeStyle=orthogonalEdgeStyle;rounded=0;orthogonalLoop=1;jettySize=auto;html=1;entryX=0.354;entryY=1.025;entryDx=0;entryDy=0;entryPerimeter=0;dashed=1;" parent="1" source="Uqb2OwFKpr_LkZeMIo-q-12" target="Uqb2OwFKpr_LkZeMIo-q-7" edge="1">
          <mxGeometry relative="1" as="geometry" />
        </mxCell>
        <mxCell id="Uqb2OwFKpr_LkZeMIo-q-12" value="Inventory Tracker" style="rounded=0;whiteSpace=wrap;html=1;" parent="1" vertex="1">
          <mxGeometry x="430" y="560" width="130" height="40" as="geometry" />
        </mxCell>
        <mxCell id="Uqb2OwFKpr_LkZeMIo-q-13" value="Recommendation Service" style="rounded=0;whiteSpace=wrap;html=1;" parent="1" vertex="1">
          <mxGeometry x="425" y="690" width="130" height="40" as="geometry" />
        </mxCell>
        <mxCell id="Uqb2OwFKpr_LkZeMIo-q-14" value="" style="endArrow=classic;html=1;entryX=0;entryY=0.5;entryDx=0;entryDy=0;" parent="1" target="Uqb2OwFKpr_LkZeMIo-q-12" edge="1">
          <mxGeometry width="50" height="50" relative="1" as="geometry">
            <mxPoint x="160" y="640" as="sourcePoint" />
            <mxPoint x="290" y="570" as="targetPoint" />
          </mxGeometry>
        </mxCell>
        <mxCell id="Uqb2OwFKpr_LkZeMIo-q-15" value="track inventory" style="edgeLabel;html=1;align=center;verticalAlign=middle;resizable=0;points=[];" parent="Uqb2OwFKpr_LkZeMIo-q-14" vertex="1" connectable="0">
          <mxGeometry x="-0.0722" y="1" relative="1" as="geometry">
            <mxPoint as="offset" />
          </mxGeometry>
        </mxCell>
        <mxCell id="Uqb2OwFKpr_LkZeMIo-q-19" style="edgeStyle=orthogonalEdgeStyle;rounded=0;orthogonalLoop=1;jettySize=auto;html=1;entryX=0.954;entryY=1;entryDx=0;entryDy=0;entryPerimeter=0;dashed=1;" parent="1" source="Uqb2OwFKpr_LkZeMIo-q-18" target="Uqb2OwFKpr_LkZeMIo-q-7" edge="1">
          <mxGeometry relative="1" as="geometry" />
        </mxCell>
        <mxCell id="Uqb2OwFKpr_LkZeMIo-q-18" value="Purchase Tracker" style="rounded=0;whiteSpace=wrap;html=1;" parent="1" vertex="1">
          <mxGeometry x="520" y="610" width="130" height="40" as="geometry" />
        </mxCell>
        <mxCell id="Uqb2OwFKpr_LkZeMIo-q-20" value="" style="endArrow=classic;html=1;entryX=0;entryY=0.5;entryDx=0;entryDy=0;" parent="1" target="Uqb2OwFKpr_LkZeMIo-q-18" edge="1">
          <mxGeometry width="50" height="50" relative="1" as="geometry">
            <mxPoint x="170" y="660" as="sourcePoint" />
            <mxPoint x="310" y="640" as="targetPoint" />
          </mxGeometry>
        </mxCell>
        <mxCell id="Uqb2OwFKpr_LkZeMIo-q-21" value="track purchases" style="edgeLabel;html=1;align=center;verticalAlign=middle;resizable=0;points=[];" parent="Uqb2OwFKpr_LkZeMIo-q-20" vertex="1" connectable="0">
          <mxGeometry x="-0.0789" y="2" relative="1" as="geometry">
            <mxPoint as="offset" />
          </mxGeometry>
        </mxCell>
        <mxCell id="Uqb2OwFKpr_LkZeMIo-q-22" value="" style="endArrow=classic;html=1;" parent="1" edge="1">
          <mxGeometry width="50" height="50" relative="1" as="geometry">
            <mxPoint x="170" y="680" as="sourcePoint" />
            <mxPoint x="420" y="710" as="targetPoint" />
          </mxGeometry>
        </mxCell>
        <mxCell id="Uqb2OwFKpr_LkZeMIo-q-23" value="generate recommendations" style="edgeLabel;html=1;align=center;verticalAlign=middle;resizable=0;points=[];" parent="Uqb2OwFKpr_LkZeMIo-q-22" vertex="1" connectable="0">
          <mxGeometry x="-0.0502" y="2" relative="1" as="geometry">
            <mxPoint as="offset" />
          </mxGeometry>
        </mxCell>
        <mxCell id="Uqb2OwFKpr_LkZeMIo-q-24" value="" style="endArrow=classic;html=1;" parent="1" edge="1">
          <mxGeometry width="50" height="50" relative="1" as="geometry">
            <mxPoint x="150" y="50" as="sourcePoint" />
            <mxPoint x="420" y="20" as="targetPoint" />
          </mxGeometry>
        </mxCell>
        <mxCell id="Uqb2OwFKpr_LkZeMIo-q-25" value="view recommendations" style="edgeLabel;html=1;align=center;verticalAlign=middle;resizable=0;points=[];" parent="Uqb2OwFKpr_LkZeMIo-q-24" vertex="1" connectable="0">
          <mxGeometry x="-0.0959" relative="1" as="geometry">
            <mxPoint as="offset" />
          </mxGeometry>
        </mxCell>
        <mxCell id="Uqb2OwFKpr_LkZeMIo-q-31" style="edgeStyle=orthogonalEdgeStyle;rounded=0;orthogonalLoop=1;jettySize=auto;html=1;entryX=1;entryY=0.5;entryDx=0;entryDy=0;exitX=1;exitY=0.5;exitDx=0;exitDy=0;curved=1;dashed=1;" parent="1" source="Uqb2OwFKpr_LkZeMIo-q-26" target="AFESQtXUc2UWVLBhGiya-16" edge="1">
          <mxGeometry relative="1" as="geometry">
            <Array as="points">
              <mxPoint x="600" y="20" />
              <mxPoint x="600" y="210" />
            </Array>
          </mxGeometry>
        </mxCell>
        <mxCell id="Uqb2OwFKpr_LkZeMIo-q-32" style="edgeStyle=orthogonalEdgeStyle;curved=1;rounded=0;orthogonalLoop=1;jettySize=auto;html=1;entryX=1;entryY=0.5;entryDx=0;entryDy=0;dashed=1;" parent="1" target="Uqb2OwFKpr_LkZeMIo-q-1" edge="1">
          <mxGeometry relative="1" as="geometry">
            <mxPoint x="550" y="20" as="sourcePoint" />
            <Array as="points">
              <mxPoint x="630" y="20" />
              <mxPoint x="630" y="210" />
              <mxPoint x="570" y="210" />
              <mxPoint x="570" y="300" />
            </Array>
          </mxGeometry>
        </mxCell>
        <mxCell id="Uqb2OwFKpr_LkZeMIo-q-26" value="Recommendation Service" style="rounded=0;whiteSpace=wrap;html=1;" parent="1" vertex="1">
          <mxGeometry x="420" width="130" height="40" as="geometry" />
        </mxCell>
        <mxCell id="Uqb2OwFKpr_LkZeMIo-q-27" value="Feedback Service" style="rounded=0;whiteSpace=wrap;html=1;" parent="1" vertex="1">
          <mxGeometry x="425" y="740" width="100" height="40" as="geometry" />
        </mxCell>
        <mxCell id="Uqb2OwFKpr_LkZeMIo-q-28" value="solicit feedback on purchases" style="endArrow=classic;html=1;" parent="1" edge="1">
          <mxGeometry width="50" height="50" relative="1" as="geometry">
            <mxPoint x="160" y="700" as="sourcePoint" />
            <mxPoint x="420" y="760" as="targetPoint" />
          </mxGeometry>
        </mxCell>
        <mxCell id="Uqb2OwFKpr_LkZeMIo-q-29" value="Marketing Service" style="rounded=0;whiteSpace=wrap;html=1;" parent="1" vertex="1">
          <mxGeometry x="425" y="800" width="100" height="40" as="geometry" />
        </mxCell>
        <mxCell id="Uqb2OwFKpr_LkZeMIo-q-30" value="create promotions/coupons" style="endArrow=classic;html=1;" parent="1" edge="1">
          <mxGeometry width="50" height="50" relative="1" as="geometry">
            <mxPoint x="150" y="820" as="sourcePoint" />
            <mxPoint x="420" y="820" as="targetPoint" />
          </mxGeometry>
        </mxCell>
        <mxCell id="Uqb2OwFKpr_LkZeMIo-q-34" value="" style="endArrow=classic;html=1;dashed=1;edgeStyle=orthogonalEdgeStyle;exitX=1;exitY=0.5;exitDx=0;exitDy=0;entryX=1;entryY=0.5;entryDx=0;entryDy=0;" parent="1" source="Uqb2OwFKpr_LkZeMIo-q-26" target="Uqb2OwFKpr_LkZeMIo-q-18" edge="1">
          <mxGeometry width="50" height="50" relative="1" as="geometry">
            <mxPoint x="740" y="250" as="sourcePoint" />
            <mxPoint x="790" y="200" as="targetPoint" />
            <Array as="points">
              <mxPoint x="680" y="20" />
              <mxPoint x="680" y="630" />
            </Array>
          </mxGeometry>
        </mxCell>
        <mxCell id="iNOk3lb7rnPQJD2jYz3T-1" value="Text" style="text;html=1;strokeColor=none;fillColor=none;align=center;verticalAlign=middle;whiteSpace=wrap;rounded=0;" parent="1" vertex="1">
          <mxGeometry x="400" y="160" width="40" height="20" as="geometry" />
        </mxCell>
        <mxCell id="iNOk3lb7rnPQJD2jYz3T-2" value="&lt;b&gt;Customer: &lt;/b&gt;Persona that deals with purchases food&lt;br&gt;&lt;b&gt;Food Vendor: &lt;/b&gt;Food supplier and Kitchen functionalities is included as part of this persona&lt;br&gt;&lt;div&gt;&lt;b&gt;POS Agent:&lt;/b&gt; Smart Fridge and Kiosk represents Point Of Sale Agent persona&lt;/div&gt;&lt;b&gt;Service Agent:&lt;/b&gt;&amp;nbsp;Volunteers to deliver food and operation maintenance&amp;nbsp;&lt;br&gt;&lt;b&gt;System: &lt;/b&gt;Automated operations in the backend&lt;br&gt;&lt;b&gt;Marketing Manager: &lt;/b&gt;Persona that handles discounts, coupons, and promotions, etc." style="text;html=1;strokeColor=none;fillColor=none;align=left;verticalAlign=middle;whiteSpace=wrap;rounded=0;" parent="1" vertex="1">
          <mxGeometry x="60" y="900" width="750" height="130" as="geometry" />
        </mxCell>
        <mxCell id="iNOk3lb7rnPQJD2jYz3T-6" style="edgeStyle=orthogonalEdgeStyle;rounded=0;orthogonalLoop=1;jettySize=auto;html=1;entryX=1;entryY=0.5;entryDx=0;entryDy=0;" parent="1" source="Uqb2OwFKpr_LkZeMIo-q-5" target="Uqb2OwFKpr_LkZeMIo-q-5" edge="1">
          <mxGeometry relative="1" as="geometry" />
        </mxCell>
      </root>
    </mxGraphModel>
  </diagram>
  <diagram id="qgoeYmWDUSobrB9xaV_u" name="Topology">
    <mxGraphModel dx="1298" dy="877" grid="1" gridSize="10" guides="1" tooltips="1" connect="1" arrows="1" fold="1" page="1" pageScale="1" pageWidth="850" pageHeight="1100" math="0" shadow="0">
      <root>
        <mxCell id="qQ3zsuzZt-Hzc_06bmaa-0" />
        <mxCell id="qQ3zsuzZt-Hzc_06bmaa-1" parent="qQ3zsuzZt-Hzc_06bmaa-0" />
        <mxCell id="4fH2xO_H_jrXaztvzUDd-49" style="edgeStyle=orthogonalEdgeStyle;rounded=0;orthogonalLoop=1;jettySize=auto;html=1;" parent="qQ3zsuzZt-Hzc_06bmaa-1" source="4fH2xO_H_jrXaztvzUDd-0" edge="1">
          <mxGeometry relative="1" as="geometry">
            <mxPoint x="652.5" y="350" as="targetPoint" />
          </mxGeometry>
        </mxCell>
        <mxCell id="4fH2xO_H_jrXaztvzUDd-0" value="" style="html=1;verticalLabelPosition=bottom;labelBackgroundColor=#ffffff;verticalAlign=top;shadow=0;strokeWidth=1;shape=mxgraph.ios7.misc.iphone;rounded=0;" parent="qQ3zsuzZt-Hzc_06bmaa-1" vertex="1">
          <mxGeometry x="605" y="40" width="95" height="160" as="geometry" />
        </mxCell>
        <mxCell id="4fH2xO_H_jrXaztvzUDd-2" value="" style="endArrow=none;html=1;" parent="qQ3zsuzZt-Hzc_06bmaa-1" edge="1">
          <mxGeometry width="50" height="50" relative="1" as="geometry">
            <mxPoint x="150" y="350" as="sourcePoint" />
            <mxPoint x="950" y="350" as="targetPoint" />
          </mxGeometry>
        </mxCell>
        <mxCell id="4fH2xO_H_jrXaztvzUDd-32" style="edgeStyle=orthogonalEdgeStyle;rounded=0;orthogonalLoop=1;jettySize=auto;html=1;dashed=1;" parent="qQ3zsuzZt-Hzc_06bmaa-1" source="4fH2xO_H_jrXaztvzUDd-38" edge="1">
          <mxGeometry relative="1" as="geometry">
            <mxPoint x="240" y="350" as="targetPoint" />
            <mxPoint x="250" y="625.0000000000002" as="sourcePoint" />
            <Array as="points">
              <mxPoint x="230" y="610" />
              <mxPoint x="230" y="430" />
              <mxPoint x="240" y="430" />
            </Array>
          </mxGeometry>
        </mxCell>
        <mxCell id="4fH2xO_H_jrXaztvzUDd-4" value="&lt;font style=&quot;font-size: 16px&quot;&gt;Recommendation Service&lt;/font&gt;" style="rounded=0;whiteSpace=wrap;html=1;fillColor=none;gradientColor=none;strokeWidth=3;" parent="qQ3zsuzZt-Hzc_06bmaa-1" vertex="1">
          <mxGeometry x="180" y="730" width="130" height="60" as="geometry" />
        </mxCell>
        <mxCell id="4fH2xO_H_jrXaztvzUDd-5" value="&lt;font style=&quot;font-size: 16px&quot;&gt;Menu Service&lt;/font&gt;" style="rounded=0;whiteSpace=wrap;html=1;fillColor=none;gradientColor=none;strokeWidth=3;" parent="qQ3zsuzZt-Hzc_06bmaa-1" vertex="1">
          <mxGeometry x="240" y="470" width="130" height="60" as="geometry" />
        </mxCell>
        <mxCell id="4fH2xO_H_jrXaztvzUDd-53" style="edgeStyle=orthogonalEdgeStyle;rounded=0;orthogonalLoop=1;jettySize=auto;html=1;dashed=1;" parent="qQ3zsuzZt-Hzc_06bmaa-1" source="4fH2xO_H_jrXaztvzUDd-6" edge="1">
          <mxGeometry relative="1" as="geometry">
            <mxPoint x="770" y="540" as="targetPoint" />
            <Array as="points">
              <mxPoint x="475" y="650" />
              <mxPoint x="770" y="650" />
            </Array>
          </mxGeometry>
        </mxCell>
        <mxCell id="4fH2xO_H_jrXaztvzUDd-6" value="&lt;font style=&quot;font-size: 16px&quot;&gt;Locator &lt;br&gt;Service&lt;/font&gt;" style="rounded=0;whiteSpace=wrap;html=1;fillColor=none;gradientColor=none;strokeWidth=3;" parent="qQ3zsuzZt-Hzc_06bmaa-1" vertex="1">
          <mxGeometry x="410" y="470" width="130" height="60" as="geometry" />
        </mxCell>
        <mxCell id="4fH2xO_H_jrXaztvzUDd-7" value="&lt;font style=&quot;font-size: 16px&quot;&gt;Feedback&lt;br&gt;Service&lt;/font&gt;" style="rounded=0;whiteSpace=wrap;html=1;fillColor=none;gradientColor=none;strokeWidth=3;" parent="qQ3zsuzZt-Hzc_06bmaa-1" vertex="1">
          <mxGeometry x="570" y="470" width="130" height="60" as="geometry" />
        </mxCell>
        <mxCell id="4fH2xO_H_jrXaztvzUDd-9" value="" style="endArrow=classic;html=1;entryX=0.5;entryY=0;entryDx=0;entryDy=0;" parent="qQ3zsuzZt-Hzc_06bmaa-1" target="4fH2xO_H_jrXaztvzUDd-5" edge="1">
          <mxGeometry width="50" height="50" relative="1" as="geometry">
            <mxPoint x="305" y="350" as="sourcePoint" />
            <mxPoint x="520" y="600" as="targetPoint" />
          </mxGeometry>
        </mxCell>
        <mxCell id="4fH2xO_H_jrXaztvzUDd-51" style="edgeStyle=orthogonalEdgeStyle;rounded=0;orthogonalLoop=1;jettySize=auto;html=1;entryX=0.679;entryY=-0.061;entryDx=0;entryDy=0;entryPerimeter=0;dashed=1;" parent="qQ3zsuzZt-Hzc_06bmaa-1" source="4fH2xO_H_jrXaztvzUDd-10" target="4fH2xO_H_jrXaztvzUDd-18" edge="1">
          <mxGeometry relative="1" as="geometry">
            <Array as="points">
              <mxPoint x="180" y="400" />
              <mxPoint x="988" y="400" />
            </Array>
          </mxGeometry>
        </mxCell>
        <mxCell id="4fH2xO_H_jrXaztvzUDd-10" value="&lt;font style=&quot;font-size: 16px&quot;&gt;Customer&lt;br&gt;Service&lt;br&gt;&lt;/font&gt;" style="rounded=0;whiteSpace=wrap;html=1;fillColor=none;gradientColor=none;strokeWidth=3;" parent="qQ3zsuzZt-Hzc_06bmaa-1" vertex="1">
          <mxGeometry x="90" y="470" width="130" height="60" as="geometry" />
        </mxCell>
        <mxCell id="4fH2xO_H_jrXaztvzUDd-11" value="" style="endArrow=classic;html=1;entryX=0.5;entryY=0;entryDx=0;entryDy=0;" parent="qQ3zsuzZt-Hzc_06bmaa-1" edge="1">
          <mxGeometry width="50" height="50" relative="1" as="geometry">
            <mxPoint x="470" y="350" as="sourcePoint" />
            <mxPoint x="470" y="470" as="targetPoint" />
          </mxGeometry>
        </mxCell>
        <mxCell id="4fH2xO_H_jrXaztvzUDd-12" value="" style="endArrow=classic;html=1;" parent="qQ3zsuzZt-Hzc_06bmaa-1" edge="1">
          <mxGeometry width="50" height="50" relative="1" as="geometry">
            <mxPoint x="634.17" y="350" as="sourcePoint" />
            <mxPoint x="634" y="460" as="targetPoint" />
          </mxGeometry>
        </mxCell>
        <mxCell id="4fH2xO_H_jrXaztvzUDd-13" value="" style="endArrow=classic;html=1;entryX=0.5;entryY=0;entryDx=0;entryDy=0;" parent="qQ3zsuzZt-Hzc_06bmaa-1" edge="1">
          <mxGeometry width="50" height="50" relative="1" as="geometry">
            <mxPoint x="153.17000000000007" y="350" as="sourcePoint" />
            <mxPoint x="153.17000000000007" y="460" as="targetPoint" />
          </mxGeometry>
        </mxCell>
        <mxCell id="4fH2xO_H_jrXaztvzUDd-31" style="edgeStyle=orthogonalEdgeStyle;rounded=0;orthogonalLoop=1;jettySize=auto;html=1;dashed=1;" parent="qQ3zsuzZt-Hzc_06bmaa-1" source="4fH2xO_H_jrXaztvzUDd-40" edge="1">
          <mxGeometry relative="1" as="geometry">
            <mxPoint x="390" y="350" as="targetPoint" />
          </mxGeometry>
        </mxCell>
        <mxCell id="4fH2xO_H_jrXaztvzUDd-14" value="&lt;font style=&quot;font-size: 16px&quot;&gt;Notification&lt;br&gt;Service&lt;/font&gt;" style="rounded=0;whiteSpace=wrap;html=1;fillColor=none;gradientColor=none;strokeWidth=3;" parent="qQ3zsuzZt-Hzc_06bmaa-1" vertex="1">
          <mxGeometry x="370" y="730" width="130" height="60" as="geometry" />
        </mxCell>
        <mxCell id="4fH2xO_H_jrXaztvzUDd-52" style="edgeStyle=orthogonalEdgeStyle;rounded=0;orthogonalLoop=1;jettySize=auto;html=1;entryX=0.885;entryY=1.078;entryDx=0;entryDy=0;entryPerimeter=0;dashed=1;" parent="qQ3zsuzZt-Hzc_06bmaa-1" target="4fH2xO_H_jrXaztvzUDd-18" edge="1">
          <mxGeometry relative="1" as="geometry">
            <mxPoint x="810" y="530" as="sourcePoint" />
            <Array as="points">
              <mxPoint x="810" y="620" />
              <mxPoint x="1015" y="620" />
            </Array>
          </mxGeometry>
        </mxCell>
        <mxCell id="4fH2xO_H_jrXaztvzUDd-15" value="&lt;font style=&quot;font-size: 16px&quot;&gt;POS&lt;br&gt;Service&lt;/font&gt;" style="rounded=0;whiteSpace=wrap;html=1;fillColor=none;gradientColor=none;strokeWidth=3;" parent="qQ3zsuzZt-Hzc_06bmaa-1" vertex="1">
          <mxGeometry x="720" y="470" width="130" height="60" as="geometry" />
        </mxCell>
        <mxCell id="4fH2xO_H_jrXaztvzUDd-30" style="edgeStyle=orthogonalEdgeStyle;rounded=0;orthogonalLoop=1;jettySize=auto;html=1;entryX=0.5;entryY=1;entryDx=0;entryDy=0;" parent="qQ3zsuzZt-Hzc_06bmaa-1" source="4fH2xO_H_jrXaztvzUDd-16" target="4fH2xO_H_jrXaztvzUDd-15" edge="1">
          <mxGeometry relative="1" as="geometry" />
        </mxCell>
        <mxCell id="4fH2xO_H_jrXaztvzUDd-16" value="&lt;span style=&quot;font-size: 16px&quot;&gt;Inventory &lt;br&gt;Tracker&lt;/span&gt;" style="rounded=0;whiteSpace=wrap;html=1;fillColor=none;gradientColor=none;strokeWidth=3;" parent="qQ3zsuzZt-Hzc_06bmaa-1" vertex="1">
          <mxGeometry x="565" y="730" width="130" height="60" as="geometry" />
        </mxCell>
        <mxCell id="4fH2xO_H_jrXaztvzUDd-17" value="" style="endArrow=classic;html=1;" parent="qQ3zsuzZt-Hzc_06bmaa-1" edge="1">
          <mxGeometry width="50" height="50" relative="1" as="geometry">
            <mxPoint x="780.1700000000001" y="350" as="sourcePoint" />
            <mxPoint x="779.9999999999998" y="460" as="targetPoint" />
          </mxGeometry>
        </mxCell>
        <mxCell id="4fH2xO_H_jrXaztvzUDd-33" style="edgeStyle=orthogonalEdgeStyle;rounded=0;orthogonalLoop=1;jettySize=auto;html=1;entryX=1;entryY=0.5;entryDx=0;entryDy=0;" parent="qQ3zsuzZt-Hzc_06bmaa-1" source="4fH2xO_H_jrXaztvzUDd-18" target="4fH2xO_H_jrXaztvzUDd-20" edge="1">
          <mxGeometry relative="1" as="geometry" />
        </mxCell>
        <mxCell id="4fH2xO_H_jrXaztvzUDd-18" value="&lt;span style=&quot;font-size: 16px&quot;&gt;Purchase&amp;nbsp;&lt;br&gt;Tracker&lt;/span&gt;" style="rounded=0;whiteSpace=wrap;html=1;fillColor=none;gradientColor=none;strokeWidth=3;" parent="qQ3zsuzZt-Hzc_06bmaa-1" vertex="1">
          <mxGeometry x="900" y="470" width="130" height="60" as="geometry" />
        </mxCell>
        <mxCell id="4fH2xO_H_jrXaztvzUDd-19" value="" style="endArrow=classic;html=1;" parent="qQ3zsuzZt-Hzc_06bmaa-1" edge="1">
          <mxGeometry width="50" height="50" relative="1" as="geometry">
            <mxPoint x="950.1700000000003" y="350" as="sourcePoint" />
            <mxPoint x="949.9999999999998" y="460" as="targetPoint" />
          </mxGeometry>
        </mxCell>
        <mxCell id="4fH2xO_H_jrXaztvzUDd-20" value="&lt;span style=&quot;font-size: 16px&quot;&gt;Marketing&lt;br&gt;&lt;/span&gt;Service" style="rounded=0;whiteSpace=wrap;html=1;fillColor=none;gradientColor=none;strokeWidth=3;" parent="qQ3zsuzZt-Hzc_06bmaa-1" vertex="1">
          <mxGeometry x="810" y="730" width="130" height="60" as="geometry" />
        </mxCell>
        <mxCell id="4fH2xO_H_jrXaztvzUDd-26" value="" style="endArrow=classic;html=1;exitX=0.5;exitY=0;exitDx=0;exitDy=0;" parent="qQ3zsuzZt-Hzc_06bmaa-1" source="4fH2xO_H_jrXaztvzUDd-20" edge="1">
          <mxGeometry width="50" height="50" relative="1" as="geometry">
            <mxPoint x="840" y="640" as="sourcePoint" />
            <mxPoint x="875" y="350" as="targetPoint" />
          </mxGeometry>
        </mxCell>
        <mxCell id="4fH2xO_H_jrXaztvzUDd-34" value="" style="shape=cylinder3;whiteSpace=wrap;html=1;boundedLbl=1;backgroundOutline=1;size=15;rounded=0;strokeWidth=3;fillColor=none;gradientColor=none;" parent="qQ3zsuzZt-Hzc_06bmaa-1" vertex="1">
          <mxGeometry x="890" y="790" width="60" height="80" as="geometry" />
        </mxCell>
        <mxCell id="4fH2xO_H_jrXaztvzUDd-37" style="edgeStyle=orthogonalEdgeStyle;rounded=0;orthogonalLoop=1;jettySize=auto;html=1;dashed=1;" parent="qQ3zsuzZt-Hzc_06bmaa-1" source="4fH2xO_H_jrXaztvzUDd-4" target="4fH2xO_H_jrXaztvzUDd-38" edge="1">
          <mxGeometry relative="1" as="geometry">
            <mxPoint x="255" y="675.0000000000002" as="targetPoint" />
            <mxPoint x="255" y="730.0000000000002" as="sourcePoint" />
          </mxGeometry>
        </mxCell>
        <mxCell id="4fH2xO_H_jrXaztvzUDd-38" value="Queue" style="outlineConnect=0;fontColor=#232F3E;gradientColor=none;strokeColor=#232F3E;fillColor=#ffffff;dashed=0;verticalLabelPosition=bottom;verticalAlign=top;align=center;html=1;fontSize=12;fontStyle=0;aspect=fixed;shape=mxgraph.aws4.resourceIcon;resIcon=mxgraph.aws4.queue;rounded=0;" parent="qQ3zsuzZt-Hzc_06bmaa-1" vertex="1">
          <mxGeometry x="200" y="610" width="60" height="60" as="geometry" />
        </mxCell>
        <mxCell id="4fH2xO_H_jrXaztvzUDd-40" value="Queue" style="outlineConnect=0;fontColor=#232F3E;gradientColor=none;strokeColor=#232F3E;fillColor=#ffffff;dashed=0;verticalLabelPosition=bottom;verticalAlign=top;align=center;html=1;fontSize=12;fontStyle=0;aspect=fixed;shape=mxgraph.aws4.resourceIcon;resIcon=mxgraph.aws4.queue;rounded=0;" parent="qQ3zsuzZt-Hzc_06bmaa-1" vertex="1">
          <mxGeometry x="405" y="600" width="60" height="60" as="geometry" />
        </mxCell>
        <mxCell id="4fH2xO_H_jrXaztvzUDd-41" style="edgeStyle=orthogonalEdgeStyle;rounded=0;orthogonalLoop=1;jettySize=auto;html=1;dashed=1;" parent="qQ3zsuzZt-Hzc_06bmaa-1" source="4fH2xO_H_jrXaztvzUDd-14" target="4fH2xO_H_jrXaztvzUDd-40" edge="1">
          <mxGeometry relative="1" as="geometry">
            <mxPoint x="390" y="350" as="targetPoint" />
            <mxPoint x="435" y="730.0000000000002" as="sourcePoint" />
          </mxGeometry>
        </mxCell>
        <mxCell id="4fH2xO_H_jrXaztvzUDd-42" value="" style="shape=cylinder3;whiteSpace=wrap;html=1;boundedLbl=1;backgroundOutline=1;size=15;rounded=0;strokeWidth=3;fillColor=none;gradientColor=none;" parent="qQ3zsuzZt-Hzc_06bmaa-1" vertex="1">
          <mxGeometry x="670" y="790" width="60" height="80" as="geometry" />
        </mxCell>
        <mxCell id="4fH2xO_H_jrXaztvzUDd-43" value="" style="shape=cylinder3;whiteSpace=wrap;html=1;boundedLbl=1;backgroundOutline=1;size=15;rounded=0;strokeWidth=3;fillColor=none;gradientColor=none;" parent="qQ3zsuzZt-Hzc_06bmaa-1" vertex="1">
          <mxGeometry x="622.5" y="530" width="60" height="80" as="geometry" />
        </mxCell>
        <mxCell id="4fH2xO_H_jrXaztvzUDd-48" style="edgeStyle=orthogonalEdgeStyle;rounded=0;orthogonalLoop=1;jettySize=auto;html=1;" parent="qQ3zsuzZt-Hzc_06bmaa-1" source="4fH2xO_H_jrXaztvzUDd-45" edge="1">
          <mxGeometry relative="1" as="geometry">
            <mxPoint x="440" y="350" as="targetPoint" />
          </mxGeometry>
        </mxCell>
        <mxCell id="4fH2xO_H_jrXaztvzUDd-45" value="" style="pointerEvents=1;shadow=0;dashed=0;html=1;strokeColor=none;fillColor=#434445;aspect=fixed;labelPosition=center;verticalLabelPosition=bottom;verticalAlign=top;align=center;outlineConnect=0;shape=mxgraph.vvd.web_browser;rounded=0;" parent="qQ3zsuzZt-Hzc_06bmaa-1" vertex="1">
          <mxGeometry x="390" y="90" width="100" height="71" as="geometry" />
        </mxCell>
        <mxCell id="4fH2xO_H_jrXaztvzUDd-46" value="&lt;font style=&quot;font-size: 29px&quot;&gt;&lt;b&gt;ADR&lt;/b&gt;:&lt;br&gt;&lt;ol&gt;&lt;li&gt;Purchase tracker will include payment -&lt;/li&gt;&lt;li&gt;&lt;font style=&quot;font-size: 29px&quot;&gt;POS abstraction&lt;/font&gt;&lt;/li&gt;&lt;li&gt;&lt;span&gt;Food vendor and Kitchen abstraction&lt;/span&gt;&lt;br&gt;&lt;/li&gt;&lt;li&gt;&lt;font style=&quot;font-size: 29px&quot;&gt;Feedback and Rating abstraction&lt;/font&gt;&lt;/li&gt;&lt;li&gt;&lt;b&gt;Kartik&lt;/b&gt;&lt;span&gt;&amp;nbsp;&lt;/span&gt;&lt;span&gt;- ADR for point [1,2]&lt;/span&gt;&lt;/li&gt;&lt;li&gt;&lt;span&gt;&lt;b&gt;Srinivasa&lt;/b&gt; - ADR for point [3,4]&lt;/span&gt;&lt;/li&gt;&lt;/ol&gt;&lt;div&gt;&lt;/div&gt;&lt;ol&gt;&lt;li&gt;Architecture Style - Microservice-based and Event-driven architecture -&amp;nbsp;&lt;/li&gt;&lt;li&gt;&lt;font style=&quot;font-size: 29px&quot;&gt;Real-time vs batch processing - &lt;b&gt;Daniel&lt;/b&gt;&lt;/font&gt;&lt;/li&gt;&lt;li&gt;&lt;font style=&quot;font-size: 29px&quot;&gt;&lt;b&gt;Chandra&lt;/b&gt; will work on the Topology diagram&lt;/font&gt;&lt;/li&gt;&lt;li&gt;&lt;font style=&quot;font-size: 29px&quot;&gt;&lt;b&gt;Chari&lt;/b&gt; - Topology&amp;nbsp;&lt;/font&gt;&lt;/li&gt;&lt;/ol&gt;&lt;/font&gt;" style="text;html=1;strokeColor=none;fillColor=none;align=left;verticalAlign=middle;whiteSpace=wrap;rounded=0;" parent="qQ3zsuzZt-Hzc_06bmaa-1" vertex="1">
          <mxGeometry x="160" y="1110" width="775" height="200" as="geometry" />
        </mxCell>
        <mxCell id="4fH2xO_H_jrXaztvzUDd-55" style="edgeStyle=orthogonalEdgeStyle;rounded=0;orthogonalLoop=1;jettySize=auto;html=1;entryX=0.5;entryY=1;entryDx=0;entryDy=0;dashed=1;" parent="qQ3zsuzZt-Hzc_06bmaa-1" source="4fH2xO_H_jrXaztvzUDd-54" target="4fH2xO_H_jrXaztvzUDd-16" edge="1">
          <mxGeometry relative="1" as="geometry" />
        </mxCell>
        <mxCell id="4fH2xO_H_jrXaztvzUDd-54" value="&lt;span style=&quot;font-size: 16px&quot;&gt;Vendor&lt;/span&gt;" style="rounded=0;whiteSpace=wrap;html=1;fillColor=none;gradientColor=none;strokeWidth=3;" parent="qQ3zsuzZt-Hzc_06bmaa-1" vertex="1">
          <mxGeometry x="440" y="870" width="130" height="60" as="geometry" />
        </mxCell>
        <mxCell id="4fH2xO_H_jrXaztvzUDd-57" value="" style="shape=cylinder3;whiteSpace=wrap;html=1;boundedLbl=1;backgroundOutline=1;size=15;rounded=0;strokeWidth=3;fillColor=none;gradientColor=none;" parent="qQ3zsuzZt-Hzc_06bmaa-1" vertex="1">
          <mxGeometry x="280" y="530" width="60" height="80" as="geometry" />
        </mxCell>
        <mxCell id="4fH2xO_H_jrXaztvzUDd-58" value="" style="shape=cylinder3;whiteSpace=wrap;html=1;boundedLbl=1;backgroundOutline=1;size=15;rounded=0;strokeWidth=3;fillColor=none;gradientColor=none;" parent="qQ3zsuzZt-Hzc_06bmaa-1" vertex="1">
          <mxGeometry x="490" y="530" width="60" height="80" as="geometry" />
        </mxCell>
        <mxCell id="4fH2xO_H_jrXaztvzUDd-59" value="" style="shape=cylinder3;whiteSpace=wrap;html=1;boundedLbl=1;backgroundOutline=1;size=15;rounded=0;strokeWidth=3;fillColor=none;gradientColor=none;" parent="qQ3zsuzZt-Hzc_06bmaa-1" vertex="1">
          <mxGeometry x="90" y="530" width="60" height="80" as="geometry" />
        </mxCell>
        <mxCell id="4fH2xO_H_jrXaztvzUDd-60" value="" style="shape=cylinder3;whiteSpace=wrap;html=1;boundedLbl=1;backgroundOutline=1;size=15;rounded=0;strokeWidth=3;fillColor=none;gradientColor=none;" parent="qQ3zsuzZt-Hzc_06bmaa-1" vertex="1">
          <mxGeometry x="810" y="530" width="40" height="60" as="geometry" />
        </mxCell>
      </root>
    </mxGraphModel>
  </diagram>
  <diagram id="mNP-GBcba708YCqQEWhl" name="Topology 2">
    <mxGraphModel dx="1888" dy="702" grid="1" gridSize="10" guides="1" tooltips="1" connect="1" arrows="1" fold="1" page="1" pageScale="1" pageWidth="850" pageHeight="1100" background="#B0E3E6" math="0" shadow="1">
      <root>
        <mxCell id="RHNygG4-QyBGX2huQ6m5-0" />
        <mxCell id="RHNygG4-QyBGX2huQ6m5-1" parent="RHNygG4-QyBGX2huQ6m5-0" />
        <mxCell id="RHNygG4-QyBGX2huQ6m5-18" value="" style="edgeStyle=orthogonalEdgeStyle;curved=0;rounded=1;orthogonalLoop=1;jettySize=auto;html=1;strokeColor=#182E3E;fontColor=#1A1A1A;" edge="1" parent="RHNygG4-QyBGX2huQ6m5-1" source="RHNygG4-QyBGX2huQ6m5-9" target="RHNygG4-QyBGX2huQ6m5-17">
          <mxGeometry relative="1" as="geometry" />
        </mxCell>
        <mxCell id="RHNygG4-QyBGX2huQ6m5-9" value="" style="shape=image;html=1;verticalAlign=top;verticalLabelPosition=bottom;labelBackgroundColor=#ffffff;imageAspect=0;aspect=fixed;image=https://cdn2.iconfinder.com/data/icons/circle-icons-1/64/browser-128.png;rounded=0;strokeColor=#FFFFFF;fillColor=#F08E81;fontColor=#1A1A1A;" vertex="1" parent="RHNygG4-QyBGX2huQ6m5-1">
          <mxGeometry x="-15" y="25" width="70" height="70" as="geometry" />
        </mxCell>
        <mxCell id="RHNygG4-QyBGX2huQ6m5-24" value="" style="edgeStyle=orthogonalEdgeStyle;curved=0;rounded=1;orthogonalLoop=1;jettySize=auto;html=1;strokeColor=#182E3E;fontColor=#1A1A1A;entryX=0.5;entryY=0;entryDx=0;entryDy=0;" edge="1" parent="RHNygG4-QyBGX2huQ6m5-1" source="RHNygG4-QyBGX2huQ6m5-16" target="RHNygG4-QyBGX2huQ6m5-19">
          <mxGeometry x="-0.3888" y="-75" relative="1" as="geometry">
            <mxPoint x="524.7931034482758" y="160" as="targetPoint" />
            <Array as="points">
              <mxPoint x="230" y="220" />
              <mxPoint x="128" y="220" />
            </Array>
            <mxPoint x="-75" y="75" as="offset" />
          </mxGeometry>
        </mxCell>
        <mxCell id="6w54oCexMT2WT41Ikm1t-0" value="REST API" style="edgeLabel;html=1;align=center;verticalAlign=middle;resizable=0;points=[];fontColor=#1A1A1A;" vertex="1" connectable="0" parent="RHNygG4-QyBGX2huQ6m5-24">
          <mxGeometry x="0.0343" y="-33" relative="1" as="geometry">
            <mxPoint x="-44.760000000000005" y="33" as="offset" />
          </mxGeometry>
        </mxCell>
        <mxCell id="RHNygG4-QyBGX2huQ6m5-16" value="" style="pointerEvents=1;shadow=0;dashed=0;html=1;strokeColor=none;fillColor=#434445;aspect=fixed;labelPosition=center;verticalLabelPosition=bottom;verticalAlign=top;align=center;outlineConnect=0;shape=mxgraph.vvd.phone;rounded=0;fontColor=#1A1A1A;" vertex="1" parent="RHNygG4-QyBGX2huQ6m5-1">
          <mxGeometry x="215" y="35" width="29.5" height="50" as="geometry" />
        </mxCell>
        <mxCell id="RHNygG4-QyBGX2huQ6m5-20" value="REST API" style="edgeStyle=orthogonalEdgeStyle;curved=0;rounded=1;orthogonalLoop=1;jettySize=auto;html=1;strokeColor=#182E3E;fontColor=#1A1A1A;" edge="1" parent="RHNygG4-QyBGX2huQ6m5-1" source="RHNygG4-QyBGX2huQ6m5-17" target="RHNygG4-QyBGX2huQ6m5-19">
          <mxGeometry relative="1" as="geometry" />
        </mxCell>
        <mxCell id="RHNygG4-QyBGX2huQ6m5-17" value="Web Application" style="rounded=1;whiteSpace=wrap;html=1;strokeColor=#FFFFFF;fontColor=#1A1A1A;fillColor=#66FF66;" vertex="1" parent="RHNygG4-QyBGX2huQ6m5-1">
          <mxGeometry x="-40" y="135" width="120" height="60" as="geometry" />
        </mxCell>
        <mxCell id="sOZIn1RSz20QiJBlGLPp-5" value="" style="edgeStyle=orthogonalEdgeStyle;curved=0;rounded=1;orthogonalLoop=1;jettySize=auto;html=1;strokeColor=#182E3E;fontColor=#1A1A1A;entryX=0.5;entryY=0;entryDx=0;entryDy=0;" edge="1" parent="RHNygG4-QyBGX2huQ6m5-1" target="sOZIn1RSz20QiJBlGLPp-1">
          <mxGeometry relative="1" as="geometry">
            <mxPoint x="48" y="300" as="sourcePoint" />
            <mxPoint x="378" y="384" as="targetPoint" />
            <Array as="points">
              <mxPoint x="48" y="340" />
              <mxPoint x="48" y="340" />
            </Array>
          </mxGeometry>
        </mxCell>
        <mxCell id="sOZIn1RSz20QiJBlGLPp-15" value="" style="edgeStyle=orthogonalEdgeStyle;curved=0;rounded=1;orthogonalLoop=1;jettySize=auto;html=1;strokeColor=#182E3E;fontColor=#1A1A1A;entryX=0.452;entryY=0.02;entryDx=0;entryDy=0;entryPerimeter=0;" edge="1" parent="RHNygG4-QyBGX2huQ6m5-1" target="sOZIn1RSz20QiJBlGLPp-6">
          <mxGeometry relative="1" as="geometry">
            <mxPoint x="192" y="304" as="sourcePoint" />
            <mxPoint x="378" y="384" as="targetPoint" />
            <Array as="points">
              <mxPoint x="192" y="320" />
              <mxPoint x="192" y="320" />
            </Array>
          </mxGeometry>
        </mxCell>
        <mxCell id="AkmBz5BDuvqCaun7x4Yl-19" value="" style="edgeStyle=orthogonalEdgeStyle;curved=0;rounded=1;orthogonalLoop=1;jettySize=auto;html=1;strokeColor=#182E3E;fontColor=#1A1A1A;entryX=0.5;entryY=0;entryDx=0;entryDy=0;" edge="1" parent="RHNygG4-QyBGX2huQ6m5-1" source="RHNygG4-QyBGX2huQ6m5-19" target="AkmBz5BDuvqCaun7x4Yl-11">
          <mxGeometry relative="1" as="geometry">
            <Array as="points">
              <mxPoint x="515" y="330" />
              <mxPoint x="515" y="330" />
            </Array>
          </mxGeometry>
        </mxCell>
        <mxCell id="eKsjIKV-1KJmYbk4fcB0-4" style="edgeStyle=orthogonalEdgeStyle;curved=0;rounded=1;orthogonalLoop=1;jettySize=auto;html=1;entryX=0.5;entryY=0;entryDx=0;entryDy=0;strokeColor=#182E3E;fontColor=#1A1A1A;" edge="1" parent="RHNygG4-QyBGX2huQ6m5-1" source="RHNygG4-QyBGX2huQ6m5-19" target="eKsjIKV-1KJmYbk4fcB0-2">
          <mxGeometry relative="1" as="geometry">
            <Array as="points">
              <mxPoint x="-255" y="310" />
              <mxPoint x="-255" y="310" />
            </Array>
          </mxGeometry>
        </mxCell>
        <mxCell id="eKsjIKV-1KJmYbk4fcB0-5" style="edgeStyle=orthogonalEdgeStyle;curved=0;rounded=1;orthogonalLoop=1;jettySize=auto;html=1;strokeColor=#182E3E;fontColor=#1A1A1A;" edge="1" parent="RHNygG4-QyBGX2huQ6m5-1" source="RHNygG4-QyBGX2huQ6m5-19" target="eKsjIKV-1KJmYbk4fcB0-0">
          <mxGeometry relative="1" as="geometry">
            <Array as="points">
              <mxPoint x="-105" y="320" />
              <mxPoint x="-105" y="320" />
            </Array>
          </mxGeometry>
        </mxCell>
        <mxCell id="RHNygG4-QyBGX2huQ6m5-19" value="API Gateway" style="rounded=1;whiteSpace=wrap;html=1;strokeColor=#FFFFFF;fillColor=#F08E81;fontColor=#1A1A1A;" vertex="1" parent="RHNygG4-QyBGX2huQ6m5-1">
          <mxGeometry x="-351" y="244" width="937" height="60" as="geometry" />
        </mxCell>
        <mxCell id="sOZIn1RSz20QiJBlGLPp-1" value="" style="strokeColor=#dddddd;shadow=1;strokeWidth=1;rounded=1;absoluteArcSize=1;arcSize=2;fontColor=#1A1A1A;fillColor=#99CCFF;" vertex="1" parent="RHNygG4-QyBGX2huQ6m5-1">
          <mxGeometry x="-17" y="350" width="130" height="44" as="geometry" />
        </mxCell>
        <mxCell id="sOZIn1RSz20QiJBlGLPp-2" value="Authentication&lt;br&gt;Service" style="dashed=0;connectable=0;html=1;fillColor=#757575;strokeColor=none;shape=mxgraph.gcp2.logs_api;part=1;labelPosition=right;verticalLabelPosition=middle;align=left;verticalAlign=middle;spacingLeft=5;fontSize=12;" vertex="1" parent="sOZIn1RSz20QiJBlGLPp-1">
          <mxGeometry y="0.5" width="32" height="32" relative="1" as="geometry">
            <mxPoint x="5" y="-16" as="offset" />
          </mxGeometry>
        </mxCell>
        <mxCell id="4KrlIDKaAQz5f94Z5S3--20" value="" style="edgeStyle=orthogonalEdgeStyle;curved=0;rounded=1;orthogonalLoop=1;jettySize=auto;html=1;strokeColor=#182E3E;fontColor=#1A1A1A;" edge="1" parent="RHNygG4-QyBGX2huQ6m5-1" source="sOZIn1RSz20QiJBlGLPp-6" target="4KrlIDKaAQz5f94Z5S3--19">
          <mxGeometry relative="1" as="geometry" />
        </mxCell>
        <mxCell id="sOZIn1RSz20QiJBlGLPp-6" value="" style="strokeColor=#dddddd;shadow=1;strokeWidth=1;rounded=1;absoluteArcSize=1;arcSize=2;fontColor=#1A1A1A;fillColor=#99CCFF;" vertex="1" parent="RHNygG4-QyBGX2huQ6m5-1">
          <mxGeometry x="133" y="350" width="130" height="44" as="geometry" />
        </mxCell>
        <mxCell id="sOZIn1RSz20QiJBlGLPp-7" value="User Profile&lt;br&gt;Service" style="dashed=0;connectable=0;html=1;fillColor=#757575;strokeColor=none;shape=mxgraph.gcp2.logs_api;part=1;labelPosition=right;verticalLabelPosition=middle;align=left;verticalAlign=middle;spacingLeft=5;fontSize=12;" vertex="1" parent="sOZIn1RSz20QiJBlGLPp-6">
          <mxGeometry y="0.5" width="32" height="32" relative="1" as="geometry">
            <mxPoint x="5" y="-16" as="offset" />
          </mxGeometry>
        </mxCell>
        <mxCell id="sOZIn1RSz20QiJBlGLPp-16" value="" style="edgeStyle=orthogonalEdgeStyle;curved=0;rounded=1;orthogonalLoop=1;jettySize=auto;html=1;strokeColor=#182E3E;fontColor=#1A1A1A;entryX=0.452;entryY=0.02;entryDx=0;entryDy=0;entryPerimeter=0;" edge="1" parent="RHNygG4-QyBGX2huQ6m5-1" target="sOZIn1RSz20QiJBlGLPp-17">
          <mxGeometry relative="1" as="geometry">
            <mxPoint x="389" y="304" as="sourcePoint" />
            <mxPoint x="575" y="384" as="targetPoint" />
            <Array as="points">
              <mxPoint x="389" y="320" />
              <mxPoint x="389" y="320" />
            </Array>
          </mxGeometry>
        </mxCell>
        <mxCell id="AkmBz5BDuvqCaun7x4Yl-18" value="" style="edgeStyle=orthogonalEdgeStyle;curved=0;rounded=1;orthogonalLoop=1;jettySize=auto;html=1;strokeColor=#182E3E;fontColor=#1A1A1A;entryX=0;entryY=0.5;entryDx=0;entryDy=0;" edge="1" parent="RHNygG4-QyBGX2huQ6m5-1" source="sOZIn1RSz20QiJBlGLPp-17" target="AkmBz5BDuvqCaun7x4Yl-11">
          <mxGeometry relative="1" as="geometry">
            <mxPoint x="450" y="550" as="targetPoint" />
            <Array as="points">
              <mxPoint x="395" y="482" />
            </Array>
          </mxGeometry>
        </mxCell>
        <mxCell id="sOZIn1RSz20QiJBlGLPp-17" value="" style="strokeColor=#dddddd;shadow=1;strokeWidth=1;rounded=1;absoluteArcSize=1;arcSize=2;fontColor=#1A1A1A;fillColor=#99CCFF;" vertex="1" parent="RHNygG4-QyBGX2huQ6m5-1">
          <mxGeometry x="330" y="350" width="130" height="44" as="geometry" />
        </mxCell>
        <mxCell id="sOZIn1RSz20QiJBlGLPp-18" value="Food Catalog&lt;br&gt;Service" style="dashed=0;connectable=0;html=1;fillColor=#757575;strokeColor=none;shape=mxgraph.gcp2.logs_api;part=1;labelPosition=right;verticalLabelPosition=middle;align=left;verticalAlign=middle;spacingLeft=5;fontSize=12;" vertex="1" parent="sOZIn1RSz20QiJBlGLPp-17">
          <mxGeometry y="0.5" width="32" height="32" relative="1" as="geometry">
            <mxPoint x="5" y="-16" as="offset" />
          </mxGeometry>
        </mxCell>
        <mxCell id="AkmBz5BDuvqCaun7x4Yl-2" value="" style="edgeStyle=orthogonalEdgeStyle;curved=0;rounded=1;orthogonalLoop=1;jettySize=auto;html=1;strokeColor=#182E3E;fontColor=#1A1A1A;" edge="1" parent="RHNygG4-QyBGX2huQ6m5-1" source="AkmBz5BDuvqCaun7x4Yl-0" target="AkmBz5BDuvqCaun7x4Yl-1">
          <mxGeometry relative="1" as="geometry">
            <Array as="points">
              <mxPoint x="696" y="170" />
              <mxPoint x="696" y="170" />
            </Array>
          </mxGeometry>
        </mxCell>
        <mxCell id="AkmBz5BDuvqCaun7x4Yl-0" value="" style="shape=image;html=1;verticalAlign=top;verticalLabelPosition=bottom;labelBackgroundColor=#ffffff;imageAspect=0;aspect=fixed;image=https://cdn3.iconfinder.com/data/icons/electronic-devices-vol-1-1/36/freezer_fridge_refrigerator_cold_kitchen_electrical_appliance_appliances_2-128.png;rounded=0;strokeColor=#FFFFFF;fillColor=#99CCFF;fontColor=#1A1A1A;" vertex="1" parent="RHNygG4-QyBGX2huQ6m5-1">
          <mxGeometry x="628" width="128" height="128" as="geometry" />
        </mxCell>
        <mxCell id="AkmBz5BDuvqCaun7x4Yl-1" value="Cloud Services" style="aspect=fixed;html=1;points=[];align=center;image;fontSize=12;image=img/lib/azure2/compute/Cloud_Services_Classic.svg;rounded=0;strokeColor=#FFFFFF;fillColor=#99CCFF;" vertex="1" parent="RHNygG4-QyBGX2huQ6m5-1">
          <mxGeometry x="656" y="244" width="72" height="52" as="geometry" />
        </mxCell>
        <mxCell id="4KrlIDKaAQz5f94Z5S3--12" value="" style="edgeStyle=orthogonalEdgeStyle;curved=0;rounded=1;orthogonalLoop=1;jettySize=auto;html=1;strokeColor=#182E3E;fontColor=#1A1A1A;" edge="1" parent="RHNygG4-QyBGX2huQ6m5-1">
          <mxGeometry relative="1" as="geometry">
            <mxPoint x="527" y="506" as="sourcePoint" />
            <mxPoint x="590" y="584" as="targetPoint" />
            <Array as="points">
              <mxPoint x="527" y="544" />
              <mxPoint x="590" y="544" />
            </Array>
          </mxGeometry>
        </mxCell>
        <mxCell id="AkmBz5BDuvqCaun7x4Yl-11" value="" style="strokeColor=#dddddd;shadow=1;strokeWidth=1;rounded=1;absoluteArcSize=1;arcSize=2;fontColor=#1A1A1A;fillColor=#99CCFF;" vertex="1" parent="RHNygG4-QyBGX2huQ6m5-1">
          <mxGeometry x="450" y="460" width="130" height="44" as="geometry" />
        </mxCell>
        <mxCell id="AkmBz5BDuvqCaun7x4Yl-12" value="Menu Service" style="dashed=0;connectable=0;html=1;fillColor=#757575;strokeColor=none;shape=mxgraph.gcp2.logs_api;part=1;labelPosition=right;verticalLabelPosition=middle;align=left;verticalAlign=middle;spacingLeft=5;fontSize=12;" vertex="1" parent="AkmBz5BDuvqCaun7x4Yl-11">
          <mxGeometry y="0.5" width="32" height="32" relative="1" as="geometry">
            <mxPoint x="5" y="-16" as="offset" />
          </mxGeometry>
        </mxCell>
        <mxCell id="AkmBz5BDuvqCaun7x4Yl-20" value="" style="shape=image;html=1;verticalAlign=top;verticalLabelPosition=bottom;labelBackgroundColor=#ffffff;imageAspect=0;aspect=fixed;image=https://cdn3.iconfinder.com/data/icons/street-food-and-food-trucker-1/64/kiosk-trolley-street-food-asian-128.png;rounded=0;strokeColor=#FFFFFF;fillColor=#99CCFF;fontColor=#1A1A1A;" vertex="1" parent="RHNygG4-QyBGX2huQ6m5-1">
          <mxGeometry x="782" y="10" width="110" height="110" as="geometry" />
        </mxCell>
        <mxCell id="AkmBz5BDuvqCaun7x4Yl-21" value="Cloud Services" style="aspect=fixed;html=1;points=[];align=center;image;fontSize=12;image=img/lib/azure2/compute/Cloud_Services_Classic.svg;rounded=0;strokeColor=#FFFFFF;fillColor=#99CCFF;" vertex="1" parent="RHNygG4-QyBGX2huQ6m5-1">
          <mxGeometry x="801" y="244" width="72" height="52" as="geometry" />
        </mxCell>
        <mxCell id="AkmBz5BDuvqCaun7x4Yl-24" value="" style="endArrow=classic;html=1;strokeColor=#182E3E;fontColor=#1A1A1A;exitX=0.5;exitY=1;exitDx=0;exitDy=0;" edge="1" parent="RHNygG4-QyBGX2huQ6m5-1">
          <mxGeometry width="50" height="50" relative="1" as="geometry">
            <mxPoint x="837" y="120" as="sourcePoint" />
            <mxPoint x="837" y="240" as="targetPoint" />
          </mxGeometry>
        </mxCell>
        <mxCell id="4KrlIDKaAQz5f94Z5S3--7" value="" style="edgeStyle=orthogonalEdgeStyle;curved=0;rounded=1;orthogonalLoop=1;jettySize=auto;html=1;strokeColor=#182E3E;fontColor=#1A1A1A;" edge="1" parent="RHNygG4-QyBGX2huQ6m5-1" source="4KrlIDKaAQz5f94Z5S3--0">
          <mxGeometry relative="1" as="geometry">
            <mxPoint x="630" y="620" as="targetPoint" />
            <Array as="points">
              <mxPoint x="696" y="620" />
            </Array>
          </mxGeometry>
        </mxCell>
        <mxCell id="4KrlIDKaAQz5f94Z5S3--0" value="Inventory/Purchase Job" style="outlineConnect=0;dashed=0;verticalLabelPosition=bottom;verticalAlign=top;align=center;html=1;shape=mxgraph.aws3.automation;fillColor=#759C3E;gradientColor=none;rounded=0;strokeColor=#FFFFFF;fontColor=#1A1A1A;" vertex="1" parent="RHNygG4-QyBGX2huQ6m5-1">
          <mxGeometry x="661" y="441.5" width="70" height="68.5" as="geometry" />
        </mxCell>
        <mxCell id="4KrlIDKaAQz5f94Z5S3--4" value="" style="endArrow=classic;html=1;strokeColor=#182E3E;fontColor=#1A1A1A;" edge="1" parent="RHNygG4-QyBGX2huQ6m5-1">
          <mxGeometry width="50" height="50" relative="1" as="geometry">
            <mxPoint x="727" y="480" as="sourcePoint" />
            <mxPoint x="840" y="320" as="targetPoint" />
            <Array as="points">
              <mxPoint x="840" y="480" />
            </Array>
          </mxGeometry>
        </mxCell>
        <mxCell id="4KrlIDKaAQz5f94Z5S3--5" value="" style="shape=datastore;whiteSpace=wrap;html=1;rounded=0;strokeColor=#FFFFFF;fillColor=#99CCFF;fontColor=#1A1A1A;" vertex="1" parent="RHNygG4-QyBGX2huQ6m5-1">
          <mxGeometry x="560" y="590" width="60" height="60" as="geometry" />
        </mxCell>
        <mxCell id="4KrlIDKaAQz5f94Z5S3--13" value="" style="edgeStyle=orthogonalEdgeStyle;curved=0;rounded=1;orthogonalLoop=1;jettySize=auto;html=1;strokeColor=#182E3E;fontColor=#1A1A1A;exitX=0.418;exitY=1.073;exitDx=0;exitDy=0;exitPerimeter=0;entryX=0.5;entryY=0;entryDx=0;entryDy=0;" edge="1" parent="RHNygG4-QyBGX2huQ6m5-1" target="4KrlIDKaAQz5f94Z5S3--14" source="sOZIn1RSz20QiJBlGLPp-17">
          <mxGeometry relative="1" as="geometry">
            <mxPoint x="265.03999999999996" y="480" as="sourcePoint" />
            <mxPoint x="385" y="560" as="targetPoint" />
            <Array as="points">
              <mxPoint x="384" y="477" />
            </Array>
          </mxGeometry>
        </mxCell>
        <mxCell id="6w54oCexMT2WT41Ikm1t-4" value="" style="edgeStyle=orthogonalEdgeStyle;curved=0;rounded=1;orthogonalLoop=1;jettySize=auto;html=1;strokeColor=#182E3E;fontColor=#1A1A1A;" edge="1" parent="RHNygG4-QyBGX2huQ6m5-1" source="4KrlIDKaAQz5f94Z5S3--14" target="6w54oCexMT2WT41Ikm1t-2">
          <mxGeometry relative="1" as="geometry" />
        </mxCell>
        <mxCell id="4KrlIDKaAQz5f94Z5S3--14" value="" style="strokeColor=#dddddd;shadow=1;strokeWidth=1;rounded=1;absoluteArcSize=1;arcSize=2;fontColor=#1A1A1A;fillColor=#99CCFF;" vertex="1" parent="RHNygG4-QyBGX2huQ6m5-1">
          <mxGeometry x="320" y="598" width="130" height="44" as="geometry" />
        </mxCell>
        <mxCell id="4KrlIDKaAQz5f94Z5S3--15" value="Inventory&lt;br&gt;Service" style="dashed=0;connectable=0;html=1;fillColor=#757575;strokeColor=none;shape=mxgraph.gcp2.logs_api;part=1;labelPosition=right;verticalLabelPosition=middle;align=left;verticalAlign=middle;spacingLeft=5;fontSize=12;" vertex="1" parent="4KrlIDKaAQz5f94Z5S3--14">
          <mxGeometry y="0.5" width="32" height="32" relative="1" as="geometry">
            <mxPoint x="5" y="-16" as="offset" />
          </mxGeometry>
        </mxCell>
        <mxCell id="4KrlIDKaAQz5f94Z5S3--17" value="" style="endArrow=classic;html=1;strokeColor=#182E3E;fontColor=#1A1A1A;exitX=0;exitY=0.5;exitDx=0;exitDy=0;" edge="1" parent="RHNygG4-QyBGX2huQ6m5-1" source="4KrlIDKaAQz5f94Z5S3--5">
          <mxGeometry width="50" height="50" relative="1" as="geometry">
            <mxPoint x="510" y="620" as="sourcePoint" />
            <mxPoint x="460" y="620" as="targetPoint" />
          </mxGeometry>
        </mxCell>
        <mxCell id="4KrlIDKaAQz5f94Z5S3--18" value="" style="edgeStyle=orthogonalEdgeStyle;curved=0;rounded=1;orthogonalLoop=1;jettySize=auto;html=1;strokeColor=#182E3E;fontColor=#1A1A1A;" edge="1" parent="RHNygG4-QyBGX2huQ6m5-1">
          <mxGeometry relative="1" as="geometry">
            <mxPoint x="580" y="583" as="sourcePoint" />
            <mxPoint x="520" y="510" as="targetPoint" />
            <Array as="points">
              <mxPoint x="580" y="553" />
              <mxPoint x="520" y="553" />
            </Array>
          </mxGeometry>
        </mxCell>
        <mxCell id="4KrlIDKaAQz5f94Z5S3--19" value="" style="shape=datastore;whiteSpace=wrap;html=1;rounded=0;strokeColor=#FFFFFF;fillColor=#99CCFF;fontColor=#1A1A1A;" vertex="1" parent="RHNygG4-QyBGX2huQ6m5-1">
          <mxGeometry x="73" y="500" width="60" height="60" as="geometry" />
        </mxCell>
        <mxCell id="4KrlIDKaAQz5f94Z5S3--21" value="" style="edgeStyle=orthogonalEdgeStyle;curved=0;rounded=1;orthogonalLoop=1;jettySize=auto;html=1;strokeColor=#182E3E;fontColor=#1A1A1A;exitX=0.5;exitY=1;exitDx=0;exitDy=0;" edge="1" parent="RHNygG4-QyBGX2huQ6m5-1" source="sOZIn1RSz20QiJBlGLPp-1">
          <mxGeometry relative="1" as="geometry">
            <mxPoint x="23" y="430" as="sourcePoint" />
            <mxPoint x="103" y="500" as="targetPoint" />
          </mxGeometry>
        </mxCell>
        <mxCell id="6w54oCexMT2WT41Ikm1t-1" value="" style="endArrow=classic;html=1;strokeColor=#182E3E;fontColor=#1A1A1A;exitX=0.5;exitY=0;exitDx=0;exitDy=0;exitPerimeter=0;" edge="1" parent="RHNygG4-QyBGX2huQ6m5-1" source="4KrlIDKaAQz5f94Z5S3--0">
          <mxGeometry width="50" height="50" relative="1" as="geometry">
            <mxPoint x="597" y="452" as="sourcePoint" />
            <mxPoint x="696" y="320" as="targetPoint" />
            <Array as="points" />
          </mxGeometry>
        </mxCell>
        <mxCell id="6w54oCexMT2WT41Ikm1t-6" value="" style="edgeStyle=orthogonalEdgeStyle;curved=0;rounded=1;orthogonalLoop=1;jettySize=auto;html=1;strokeColor=#182E3E;fontColor=#1A1A1A;" edge="1" parent="RHNygG4-QyBGX2huQ6m5-1">
          <mxGeometry relative="1" as="geometry">
            <mxPoint x="393" y="744" as="sourcePoint" />
            <mxPoint x="393" y="810" as="targetPoint" />
          </mxGeometry>
        </mxCell>
        <mxCell id="6w54oCexMT2WT41Ikm1t-2" value="" style="strokeColor=#dddddd;shadow=1;strokeWidth=1;rounded=1;absoluteArcSize=1;arcSize=2;fontColor=#1A1A1A;fillColor=#99CCFF;" vertex="1" parent="RHNygG4-QyBGX2huQ6m5-1">
          <mxGeometry x="320" y="700" width="130" height="44" as="geometry" />
        </mxCell>
        <mxCell id="6w54oCexMT2WT41Ikm1t-3" value="Locator&lt;br&gt;Service" style="dashed=0;connectable=0;html=1;fillColor=#757575;strokeColor=none;shape=mxgraph.gcp2.logs_api;part=1;labelPosition=right;verticalLabelPosition=middle;align=left;verticalAlign=middle;spacingLeft=5;fontSize=12;" vertex="1" parent="6w54oCexMT2WT41Ikm1t-2">
          <mxGeometry y="0.5" width="32" height="32" relative="1" as="geometry">
            <mxPoint x="5" y="-16" as="offset" />
          </mxGeometry>
        </mxCell>
        <mxCell id="6w54oCexMT2WT41Ikm1t-5" value="" style="shape=datastore;whiteSpace=wrap;html=1;rounded=0;strokeColor=#FFFFFF;fillColor=#99CCFF;fontColor=#1A1A1A;" vertex="1" parent="RHNygG4-QyBGX2huQ6m5-1">
          <mxGeometry x="355" y="810" width="60" height="60" as="geometry" />
        </mxCell>
        <mxCell id="1GeqqfGbETsUlkTjA0xz-0" value="" style="endArrow=classic;html=1;strokeColor=#182E3E;fontColor=#1A1A1A;entryX=0;entryY=0.5;entryDx=0;entryDy=0;exitX=0.695;exitY=1.007;exitDx=0;exitDy=0;exitPerimeter=0;" edge="1" parent="RHNygG4-QyBGX2huQ6m5-1" source="RHNygG4-QyBGX2huQ6m5-19" target="6w54oCexMT2WT41Ikm1t-2">
          <mxGeometry width="50" height="50" relative="1" as="geometry">
            <mxPoint x="300" y="310" as="sourcePoint" />
            <mxPoint x="300" y="740" as="targetPoint" />
            <Array as="points">
              <mxPoint x="300" y="722" />
              <mxPoint x="310" y="722" />
            </Array>
          </mxGeometry>
        </mxCell>
        <mxCell id="1GeqqfGbETsUlkTjA0xz-1" value="" style="endArrow=classic;html=1;strokeColor=#182E3E;fontColor=#1A1A1A;exitX=0.27;exitY=0.027;exitDx=0;exitDy=0;exitPerimeter=0;entryX=0.388;entryY=0.991;entryDx=0;entryDy=0;entryPerimeter=0;" edge="1" parent="RHNygG4-QyBGX2huQ6m5-1" source="6w54oCexMT2WT41Ikm1t-5" target="6w54oCexMT2WT41Ikm1t-2">
          <mxGeometry width="50" height="50" relative="1" as="geometry">
            <mxPoint x="200" y="590" as="sourcePoint" />
            <mxPoint x="370" y="750" as="targetPoint" />
          </mxGeometry>
        </mxCell>
        <mxCell id="eKsjIKV-1KJmYbk4fcB0-0" value="" style="strokeColor=#dddddd;shadow=1;strokeWidth=1;rounded=1;absoluteArcSize=1;arcSize=2;fontColor=#1A1A1A;fillColor=#99CCFF;" vertex="1" parent="RHNygG4-QyBGX2huQ6m5-1">
          <mxGeometry x="-170" y="350" width="130" height="44" as="geometry" />
        </mxCell>
        <mxCell id="eKsjIKV-1KJmYbk4fcB0-1" value="Rating&lt;br&gt;Service" style="dashed=0;connectable=0;html=1;fillColor=#757575;strokeColor=none;shape=mxgraph.gcp2.logs_api;part=1;labelPosition=right;verticalLabelPosition=middle;align=left;verticalAlign=middle;spacingLeft=5;fontSize=12;" vertex="1" parent="eKsjIKV-1KJmYbk4fcB0-0">
          <mxGeometry y="0.5" width="32" height="32" relative="1" as="geometry">
            <mxPoint x="5" y="-16" as="offset" />
          </mxGeometry>
        </mxCell>
        <mxCell id="eKsjIKV-1KJmYbk4fcB0-2" value="" style="strokeColor=#dddddd;shadow=1;strokeWidth=1;rounded=1;absoluteArcSize=1;arcSize=2;fontColor=#1A1A1A;fillColor=#99CCFF;" vertex="1" parent="RHNygG4-QyBGX2huQ6m5-1">
          <mxGeometry x="-320" y="350" width="130" height="44" as="geometry" />
        </mxCell>
        <mxCell id="eKsjIKV-1KJmYbk4fcB0-3" value="Feedback&lt;br&gt;Service" style="dashed=0;connectable=0;html=1;fillColor=#757575;strokeColor=none;shape=mxgraph.gcp2.logs_api;part=1;labelPosition=right;verticalLabelPosition=middle;align=left;verticalAlign=middle;spacingLeft=5;fontSize=12;" vertex="1" parent="eKsjIKV-1KJmYbk4fcB0-2">
          <mxGeometry y="0.5" width="32" height="32" relative="1" as="geometry">
            <mxPoint x="5" y="-16" as="offset" />
          </mxGeometry>
        </mxCell>
      </root>
    </mxGraphModel>
  </diagram>
</mxfile>
